<svg id="Capa_1" enable-background="new 0 0 501 501" height="512" viewBox="0 0 501 501" width="512" xmlns="http://www.w3.org/2000/svg"><g><path d="m15.504 303c-2.956-15.211-4.504-30.925-4.504-47 0-135.31 109.69-245 245-245s245 109.69 245 245c0 16.075-1.548 31.789-4.504 47z" fill="#ffc14f"/><path d="m11.952 277.746h488.096c-5.597 63.642-35.528 120.3-80.431 160.615-8.532 7.66-19.596 11.898-31.062 11.898h-255.501c-18.671 0-36.589-7.384-49.827-20.551-39.796-39.583-66.067-92.75-71.275-151.962z" fill="#ffb52d"/><path d="m391.739 180.866c-34.097 0-61.739-27.642-61.739-61.739 0-34.098 27.641-61.739 61.739-61.739 2.901 0 5.756.201 8.551.588 20.026 14.616 37.75 32.197 52.529 52.097.434 2.955.659 5.979.659 9.055 0 34.096-27.642 61.738-61.739 61.738z" fill="#ffd993"/><path d="m435.038 119.127c0 23.913-19.386 43.299-43.299 43.299s-43.299-19.386-43.299-43.299 19.386-43.299 43.299-43.299 43.299 19.385 43.299 43.299z" fill="#fff5f5"/><path d="m430.167 121.651c0 3.395-2.752 6.147-6.147 6.147h-33.807c-3.395 0-6.147-2.752-6.147-6.147v-49.173c0-3.395 2.752-6.147 6.147-6.147s6.147 2.752 6.147 6.147v43.026h27.66c3.395 0 6.147 2.752 6.147 6.147z" fill="#0a3575"/><path d="m404.305 119.127c0 6.94-5.626 12.566-12.566 12.566s-12.566-5.626-12.566-12.566 5.626-12.566 12.566-12.566 12.566 5.626 12.566 12.566z" fill="#ffc14f"/><path d="m145 412h-30v-292h30z" fill="#8078bf"/><path d="m130 292c-8.284 0-15-6.716-15-15v-92c0-8.284 6.716-15 15-15 8.284 0 15 6.716 15 15v92c0 8.284-6.716 15-15 15z" fill="#958fca"/><path d="m260 130c0 71.797-58.203 130-130 130s-130-58.203-130-130 58.203-130 130-130 130 58.203 130 130z" fill="#ffe1aa"/><path d="m260 130.11c-.01 11.59-1.536 22.825-4.392 33.518-1.587 5.943-7.031 10.038-13.182 10.038-9.021 0-15.493-8.563-13.181-17.284 2.252-8.493 3.443-17.417 3.422-26.623-.13-56.26-46.216-102.323-102.477-102.425-14.535-.026-28.367 2.968-40.904 8.389-8.965 3.877-18.953-2.839-18.953-12.606v-.002c0-5.4 3.154-10.347 8.11-12.491 16.454-7.116 34.67-10.93 53.812-10.606 70.661 1.199 127.804 59.422 127.745 130.092z" fill="#ffe7c0"/><path d="m232.667 130c0 56.701-45.965 102.667-102.667 102.667s-102.667-45.966-102.667-102.667 45.966-102.667 102.667-102.667 102.667 45.966 102.667 102.667z" fill="#3493f8"/><path d="m215.729 186.509c-18.368 27.81-49.906 46.158-85.729 46.158-56.701 0-102.667-45.966-102.667-102.667 0-35.823 18.348-67.361 46.158-85.729-10.705 16.208-16.938 35.631-16.938 56.509 0 56.701 45.965 102.667 102.667 102.667 20.879-.001 40.301-6.233 56.509-16.938z" fill="#1380e2"/><path d="m137.96 87.762v94.738c0 4.143-3.358 7.5-7.5 7.5s-7.5-3.357-7.5-7.5v-94.738c0-4.143 3.358-7.5 7.5-7.5s7.5 3.357 7.5 7.5zm-7.543-22.595c4.188 0 7.583-3.395 7.583-7.583s-3.395-7.583-7.583-7.583-7.583 3.395-7.583 7.583c-.001 4.187 3.395 7.583 7.583 7.583z" fill="#fff5f5"/><path d="m254.383 330h-29.383c-8.284 0-15-6.716-15-15v-100c0-8.284 6.716-15 15-15h29.383c8.284 0 15 6.716 15 15v100c0 8.284-6.716 15-15 15z" fill="#453d83"/><path d="m348 330h-97.5c-8.284 0-15-6.716-15-15v-100c0-8.284 6.716-15 15-15h97.5c8.284 0 15 6.716 15 15v100c0 8.284-6.716 15-15 15z" fill="#51489a"/><path d="m395 330h-170c-8.284 0-15-6.716-15-15 0-8.284 6.716-15 15-15h170c8.284 0 15 6.716 15 15 0 8.284-6.716 15-15 15z" fill="#5f55af"/><path d="m395 330h-70c-8.284 0-15-6.716-15-15 0-8.284 6.716-15 15-15h70c8.284 0 15 6.716 15 15 0 8.284-6.716 15-15 15z" fill="#8078bf"/><path d="m300 255c0 8.284-6.716 15-15 15s-15-6.716-15-15 6.716-15 15-15 15 6.716 15 15z" fill="#c1bde0"/><path d="m81 337h319v97.333c-40.421 29.413-90.184 46.764-144 46.764-15.723 0-31.101 18.421-46 15.591-50.063-9.51-94.731-34.253-129-69.225z" fill="#3493f8"/><path d="m81 337h39v122.817c-14.102-9.429-27.171-20.281-39-32.354z" fill="#1380e2"/><path d="m415 350h-350c-8.284 0-15-6.716-15-15 0-8.284 6.716-15 15-15h350c8.284 0 15 6.716 15 15 0 8.284-6.716 15-15 15z" fill="#ffd993"/><path d="m415 350h-294c-8.284 0-15-6.716-15-15 0-8.284 6.716-15 15-15h294c8.284 0 15 6.716 15 15 0 8.284-6.716 15-15 15z" fill="#ffe7c0"/><path d="m420 430v8.016c-43.424 39.151-100.929 62.984-164 62.984-15.723 0-31.101-1.481-46-4.312v-66.688c0-16.568 13.431-30 30-30h150c16.569 0 30 13.432 30 30z" fill="#f44545"/><path d="m240.5 500.518c-10.354-.646-20.534-1.936-30.5-3.829v-66.689c0-16.568 13.431-30 30-30h30.5c-16.569 0-30 13.432-30 30z" fill="#c50048"/><path d="m367.5 400v74.216c-4.906 2.512-9.909 4.863-15 7.047v-81.263c0-12.406-10.093-22.5-22.5-22.5h-30c-12.407 0-22.5 10.094-22.5 22.5v100.069c-4.959.431-9.961.715-15 .846v-100.915c0-20.678 16.822-37.5 37.5-37.5h30c20.678 0 37.5 16.822 37.5 37.5z" fill="#fc7979"/></g></svg>